<?xml version="1.0" encoding="UTF-8" ?>
<!DOCTYPE svg PUBLIC "-//W3C//DTD SVG 1.1//EN"
  "http://www.w3.org/Graphics/SVG/1.1/DTD/svg11.dtd">
<svg
  xmlns="http://www.w3.org/2000/svg"
  version="1.1"
  width="1000px"
  height="623px"
  style="shape-rendering:geometricPrecision; text-rendering:geometricPrecision; image-rendering:optimizeQuality; fill-rule:evenodd; clip-rule:evenodd"
  xmlns:xlink="http://www.w3.org/1999/xlink"
>
<g><path
      style="opacity:0.952"
      fill="#fefffe"
      d="M 963.5,122.5 C 976.536,126.696 986.036,135.03 992,147.5C 993.318,150.406 993.652,153.406 993,156.5C 972.605,174.336 955.271,194.669 941,217.5C 923.479,244.873 909.479,273.873 899,304.5C 911.264,285.491 925.764,268.325 942.5,253C 950.089,247.038 958.422,242.371 967.5,239C 974.27,236.068 980.103,237.235 985,242.5C 993.401,255.348 994.734,269.015 989,283.5C 980.378,304.456 965.545,318.956 944.5,327C 951.69,351.728 964.024,373.394 981.5,392C 987.206,396.511 992.872,401.011 998.5,405.5C 993.717,413.569 986.717,418.735 977.5,421C 968.265,424.082 959.932,422.582 952.5,416.5C 947.339,410.852 943.172,404.518 940,397.5C 930.702,372.846 923.868,347.512 919.5,321.5C 933.716,311.122 946.549,299.122 958,285.5C 965.379,276.574 970.212,266.407 972.5,255C 972.355,254.228 972.022,253.561 971.5,253C 968.406,252.348 965.406,252.682 962.5,254C 955.956,257.216 949.956,261.216 944.5,266C 918.673,291.148 899.507,320.648 887,354.5C 882.696,368.256 881.196,382.256 882.5,396.5C 878.282,397.283 874.282,396.45 870.5,394C 867.604,389.048 864.104,384.548 860,380.5C 856.256,372.948 854.756,364.948 855.5,356.5C 855.666,343.5 857.833,330.833 862,318.5C 880.39,262.391 904.723,209.058 935,158.5C 942.872,145.138 952.372,133.138 963.5,122.5 Z"
    /></g>
<g><path
      style="opacity:0.96"
      fill="#fefffe"
      d="M 111.5,152.5 C 144.414,151.049 175.581,157.716 205,172.5C 209.38,187.856 206.547,201.689 196.5,214C 194.333,215.5 192.167,217 190,218.5C 173.172,199.67 152.005,189.17 126.5,187C 106.535,184.196 87.2013,186.53 68.5,194C 53.8935,203.087 53.2268,213.087 66.5,224C 77.1523,232.33 88.4856,239.663 100.5,246C 117.833,254.333 135.167,262.667 152.5,271C 193.09,290.05 205.59,320.884 190,363.5C 175.555,393.407 151.555,408.407 118,408.5C 81.6947,406.732 48.8614,395.232 19.5,374C -2.29333,356.462 -5.45999,335.962 10,312.5C 11.9606,309.537 14.294,306.871 17,304.5C 24.7731,326.611 39.2731,342.778 60.5,353C 85.7105,365.842 112.377,370.842 140.5,368C 158.982,365.692 172.149,356.192 180,339.5C 182.929,330.843 180.762,323.677 173.5,318C 167.174,313.169 160.508,308.835 153.5,305C 126.318,293.409 99.6509,280.742 73.5,267C 61.2267,260.447 51.3934,251.281 44,239.5C 33.759,202.375 46.259,175.875 81.5,160C 91.3645,156.4 101.365,153.9 111.5,152.5 Z"
    /></g>
<g><path
      style="opacity:0.957"
      fill="#fefffe"
      d="M 304.5,229.5 C 316.893,231.894 326.226,238.56 332.5,249.5C 342.977,242.351 352.644,243.518 361.5,253C 339.404,295.298 319.238,338.465 301,382.5C 286.353,419.777 275.353,458.11 268,497.5C 264.644,499.948 261.144,500.115 257.5,498C 255.347,493.846 252.014,491.18 247.5,490C 244.792,487.584 243.125,484.584 242.5,481C 246.603,439.861 256.936,400.361 273.5,362.5C 273.333,362.167 273.167,361.833 273,361.5C 266.128,368.041 258.961,374.207 251.5,380C 247.649,382.635 243.649,382.969 239.5,381C 221.689,367.884 213.855,350.384 216,328.5C 222.326,299.34 235.826,274.173 256.5,253C 270.569,241.132 286.569,233.299 304.5,229.5 Z M 311.5,254.5 C 314.85,254.335 318.183,254.502 321.5,255C 323.78,255.233 325.78,256.066 327.5,257.5C 314.247,285.213 298.414,311.213 280,335.5C 270.426,347.076 259.592,357.243 247.5,366C 246.833,366.667 246.167,366.667 245.5,366C 244.896,354.986 246.396,344.153 250,333.5C 258.339,311.143 270.006,290.809 285,272.5C 292.685,264.621 301.518,258.621 311.5,254.5 Z"
    /></g>
<g><path
      style="opacity:0.957"
      fill="#fefffe"
      d="M 412.5,234.5 C 421.268,234.942 429.602,237.109 437.5,241C 439.019,242.351 440.352,243.851 441.5,245.5C 415.29,281.43 397.624,321.263 388.5,365C 388.805,370.874 391.138,371.874 395.5,368C 414.931,345.571 432.431,321.738 448,296.5C 453.657,277.346 462.824,260.18 475.5,245C 487.046,244.011 497.546,246.845 507,253.5C 506.639,256.924 505.639,260.258 504,263.5C 495.667,280.833 487.333,298.167 479,315.5C 475.202,324.227 472.202,333.227 470,342.5C 466.941,356.658 468.274,370.325 474,383.5C 474.495,385.473 474.662,387.473 474.5,389.5C 461.605,387.634 450.105,382.634 440,374.5C 436.91,370.318 434.91,365.651 434,360.5C 433.667,354.5 433.333,348.5 433,342.5C 422.609,354.289 412.943,366.623 404,379.5C 400.358,384.146 395.858,387.646 390.5,390C 359.777,387.763 348.277,371.596 356,341.5C 363.996,307.139 378.33,275.806 399,247.5C 403.395,242.936 407.895,238.602 412.5,234.5 Z"
    /></g>
<g><path
      style="opacity:0.951"
      fill="#fefffe"
      d="M 843.5,235.5 C 848.179,235.334 852.845,235.501 857.5,236C 857.607,257.068 852.44,276.902 842,295.5C 834.313,308.207 825.646,320.207 816,331.5C 799.895,349.607 783.062,367.107 765.5,384C 762.01,386.911 758.344,389.578 754.5,392C 744.377,394.022 737.544,390.189 734,380.5C 733.333,372.167 733.333,363.833 734,355.5C 737.32,341.568 739.986,327.568 742,313.5C 738.703,315.795 735.703,318.462 733,321.5C 713.15,345.514 694.65,370.514 677.5,396.5C 664.534,392.253 658.201,383.253 658.5,369.5C 661.472,335.142 667.972,301.476 678,268.5C 689.506,246.553 706.672,240.719 729.5,251C 730.574,251.739 731.241,252.739 731.5,254C 718.71,268.081 710.543,284.581 707,303.5C 704.339,317.131 702.339,330.797 701,344.5C 715.213,325.947 730.547,308.28 747,291.5C 752.311,281.234 756.644,270.568 760,259.5C 761.796,256.073 763.963,252.906 766.5,250C 772.5,249.333 778.5,249.333 784.5,250C 788.929,250.713 792.596,252.713 795.5,256C 788.713,267.686 783.88,280.186 781,293.5C 775.496,317.346 771.163,341.346 768,365.5C 791.677,342.821 809.344,316.155 821,285.5C 825.098,271.011 828.431,256.345 831,241.5C 831.833,240.667 832.667,239.833 833.5,239C 836.98,237.897 840.313,236.731 843.5,235.5 Z"
    /></g>
<g><path
      style="opacity:0.95"
      fill="#fefffe"
      d="M 585.5,239.5 C 596.508,244.508 604.508,252.508 609.5,263.5C 583.607,274.548 563.774,292.548 550,317.5C 543.077,329.344 538.41,342.011 536,355.5C 535.333,359.5 535.333,363.5 536,367.5C 536.637,369.303 537.803,370.636 539.5,371.5C 550.009,365.829 558.842,358.162 566,348.5C 574.394,336.436 582.394,324.103 590,311.5C 600.267,293.299 610.267,274.965 620,256.5C 628.258,257.361 635.591,260.361 642,265.5C 642.167,266.333 642.333,267.167 642.5,268C 637.202,280.765 632.036,293.598 627,306.5C 618.752,326.736 614.752,347.736 615,369.5C 615.379,375.591 617.879,380.591 622.5,384.5C 613.465,390.074 603.798,391.574 593.5,389C 586.433,383.465 583.433,376.132 584.5,367C 585.139,356.306 586.639,345.806 589,335.5C 578.102,356.065 563.269,373.231 544.5,387C 530.865,394.016 520.032,390.849 512,377.5C 506.357,364.302 505.024,350.635 508,336.5C 516.341,298.951 535.841,268.785 566.5,246C 572.586,242.694 578.92,240.528 585.5,239.5 Z"
    /></g>
</svg>
